<svg width="45" height="45" xmlns="http://www.w3.org/2000/svg" data-name="Layer 1">
 <g id="Layer_1">
  <title>Layer 1</title>
  <g stroke="null">

   <title stroke="null">facebook-round-color</title>
   <path stroke="null" fill="#1877f2" d="m44.52674,21.8147c0,-12.04831 -9.96814,-21.8147 -22.26337,-21.8147s-22.26337,9.76639 -22.26337,21.8147c0,10.88798 8.14177,19.91324 18.78458,21.54958l0,-15.24352l-5.65303,0l0,-6.30606l5.65303,0l0,-4.80572c0,-5.46766 3.32418,-8.48727 8.40883,-8.48727c2.43603,0 4.98363,0.43039 4.98363,0.43039l0,5.36781l-2.80675,0c-2.76634,0 -3.62813,1.68196 -3.62813,3.40696l0,4.09214l6.17397,0l-0.98654,6.30606l-5.19007,0l0,15.23921c10.64545,-1.63634 18.78722,-10.6616 18.78722,-21.54958z" class="cls-1"/>
   <path stroke="null" fill="#fff" d="m30.9296,28.12075l0.98654,-6.30606l-6.17661,0l0,-4.09214c0,-1.72156 0.86179,-3.40696 3.62813,-3.40696l2.80675,0l0,-5.36351s-2.5476,-0.43039 -4.98363,-0.43039c-5.08465,0 -8.40883,3.01961 -8.40883,8.48727l0,4.80572l-5.6504,0l0,6.30606l5.65303,0l0,15.24352a22.49881,22.04538 0 0 0 6.95758,0l0,-15.24352l5.18744,0z" class="cls-2"/>
  </g>
 </g>

</svg>