<?xml version="1.0" encoding="UTF-8"?>
<svg xmlns="http://www.w3.org/2000/svg" xmlns:xlink="http://www.w3.org/1999/xlink" width="947.89pt" height="947.92pt" viewBox="0 0 947.89 947.92" version="1.1">
<g id="surface1">
<path style=" stroke:none;fill-rule:nonzero;fill:rgb(92.89856%,10.998535%,14.099121%);fill-opacity:1;" d="M 940.394531 473.960938 C 940.394531 731.578125 731.550781 940.421875 473.945313 940.421875 C 216.34375 940.421875 7.5 731.578125 7.5 473.960938 C 7.5 216.355469 216.34375 7.5 473.945313 7.5 C 731.550781 7.5 940.394531 216.355469 940.394531 473.960938 "/>
<path style=" stroke:none;fill-rule:nonzero;fill:rgb(0%,54.899597%,26.699829%);fill-opacity:1;" d="M 932.894531 473.960938 C 932.894531 535.921875 920.757813 596.027344 896.828125 652.605469 C 873.714844 707.257813 840.617188 756.339844 798.46875 798.492188 C 756.316406 840.644531 707.234375 873.742188 652.585938 896.855469 C 596.007813 920.785156 535.90625 932.921875 473.945313 932.921875 C 411.988281 932.921875 351.886719 920.785156 295.308594 896.855469 C 240.660156 873.742188 191.578125 840.644531 149.425781 798.492188 C 107.273438 756.339844 74.179688 707.257813 51.0625 652.605469 C 27.132813 596.027344 15 535.921875 15 473.960938 C 15 412 27.132813 351.898438 51.0625 295.320313 C 74.179688 240.667969 107.273438 191.585938 149.425781 149.429688 C 191.578125 107.277344 240.660156 74.183594 295.308594 51.066406 C 351.886719 27.132813 411.988281 15 473.945313 15 C 535.90625 15 596.007813 27.132813 652.585938 51.066406 C 707.234375 74.183594 756.316406 107.277344 798.46875 149.429688 C 840.617188 191.585938 873.714844 240.667969 896.828125 295.320313 C 920.757813 351.898438 932.894531 412 932.894531 473.960938 Z M 473.945313 0 C 409.96875 0 347.902344 12.53125 289.464844 37.25 C 233.027344 61.125 182.34375 95.296875 138.816406 138.824219 C 95.292969 182.351563 61.121094 233.039063 37.25 289.476563 C 12.53125 347.914063 0 409.980469 0 473.960938 C 0 537.941406 12.53125 600.011719 37.25 658.449219 C 61.121094 714.886719 95.292969 765.574219 138.816406 809.101563 C 182.34375 852.625 233.027344 886.800781 289.464844 910.671875 C 347.898438 935.386719 409.96875 947.921875 473.945313 947.921875 C 537.925781 947.921875 599.992188 935.386719 658.425781 910.671875 C 714.863281 886.800781 765.550781 852.625 809.074219 809.101563 C 852.597656 765.574219 886.769531 714.886719 910.644531 658.449219 C 935.359375 600.011719 947.894531 537.941406 947.894531 473.960938 C 947.894531 409.980469 935.359375 347.914063 910.644531 289.476563 C 886.769531 233.039063 852.597656 182.351563 809.074219 138.824219 C 765.550781 95.296875 714.863281 61.125 658.429688 37.25 C 599.992188 12.53125 537.925781 0 473.945313 0 "/>
<path style=" stroke:none;fill-rule:nonzero;fill:rgb(100%,100%,100%);fill-opacity:1;" d="M 834.601563 374.253906 C 834.601563 573.433594 673.128906 734.90625 473.945313 734.90625 C 274.765625 734.90625 113.292969 573.433594 113.292969 374.253906 C 113.292969 175.054688 274.765625 13.582031 473.945313 13.582031 C 673.128906 13.582031 834.601563 175.054688 834.601563 374.253906 "/>
<path style=" stroke:none;fill-rule:nonzero;fill:rgb(0%,54.899597%,26.699829%);fill-opacity:1;" d="M 827.101563 374.253906 C 827.101563 468.582031 790.367188 557.265625 723.664063 623.96875 C 656.960938 690.671875 568.277344 727.40625 473.945313 727.40625 C 379.617188 727.40625 290.929688 690.671875 224.230469 623.96875 C 157.527344 557.265625 120.792969 468.582031 120.792969 374.253906 C 120.792969 279.914063 157.527344 191.226563 224.230469 124.519531 C 290.929688 57.816406 379.613281 21.082031 473.945313 21.082031 C 568.277344 21.082031 656.960938 57.816406 723.664063 124.519531 C 790.367188 191.226563 827.101563 279.914063 827.101563 374.253906 Z M 473.945313 6.082031 C 375.609375 6.082031 283.15625 44.378906 213.621094 113.914063 C 144.085938 183.453125 105.792969 275.90625 105.792969 374.253906 C 105.792969 472.589844 144.085938 565.039063 213.621094 634.574219 C 283.15625 704.113281 375.609375 742.40625 473.945313 742.40625 C 572.28125 742.40625 664.734375 704.113281 734.269531 634.574219 C 803.804688 565.039063 842.101563 472.589844 842.101563 374.253906 C 842.101563 275.90625 803.804688 183.453125 734.269531 113.914063 C 664.734375 44.378906 572.285156 6.082031 473.945313 6.082031 "/>
<path style=" stroke:none;fill-rule:nonzero;fill:rgb(0%,54.899597%,26.699829%);fill-opacity:1;" d="M 243.707031 472.378906 C 243.707031 472.378906 172.519531 474.984375 160.457031 379.660156 C 149.683594 307.84375 224.375 274.511719 273.722656 289.566406 C 329.476563 306.539063 388.644531 358.773438 404.3125 451.476563 L 379.496094 451.476563 C 379.496094 451.476563 328.566406 367.902344 264.589844 388.804688 C 231.9375 399.253906 243.707031 472.378906 243.707031 472.378906 "/>
<path style=" stroke:none;fill-rule:nonzero;fill:rgb(0%,54.899597%,26.699829%);fill-opacity:1;" d="M 387.324219 516.757813 L 409.53125 516.757813 C 409.53125 516.757813 417.355469 600.328125 370.355469 609.476563 C 316.8125 618.621094 302.449219 570.3125 302.449219 570.3125 C 302.449219 570.3125 378.191406 592.503906 387.324219 516.757813 "/>
<path style=" stroke:none;fill-rule:nonzero;fill:rgb(0%,54.899597%,26.699829%);fill-opacity:1;" d="M 689.925781 472.378906 C 689.925781 472.378906 761.113281 474.984375 773.175781 379.660156 C 783.933594 307.84375 709.257813 274.511719 659.894531 289.566406 C 604.125 306.539063 544.972656 358.773438 529.304688 451.476563 L 554.117188 451.476563 C 554.117188 451.476563 605.050781 367.902344 669.023438 388.804688 C 701.664063 399.253906 689.925781 472.378906 689.925781 472.378906 "/>
<path style=" stroke:none;fill-rule:nonzero;fill:rgb(0%,54.899597%,26.699829%);fill-opacity:1;" d="M 546.289063 516.757813 L 524.085938 516.757813 C 524.085938 516.757813 516.261719 600.328125 563.265625 609.476563 C 616.804688 618.621094 631.167969 570.3125 631.167969 570.3125 C 631.167969 570.3125 555.421875 592.503906 546.289063 516.757813 "/>
<path style=" stroke:none;fill-rule:nonzero;fill:rgb(0%,54.899597%,26.699829%);fill-opacity:1;" d="M 363.066406 469.605469 C 363.066406 469.605469 346.59375 475.410156 347.546875 500.632813 C 347.546875 500.632813 378.574219 508.386719 373.738281 467.65625 L 363.066406 469.605469 "/>
<path style=" stroke:none;fill-rule:nonzero;fill:rgb(0%,54.899597%,26.699829%);fill-opacity:1;" d="M 559.894531 469.605469 C 559.894531 469.605469 543.402344 475.410156 544.371094 500.632813 C 544.371094 500.632813 575.398438 508.386719 570.546875 467.65625 L 559.894531 469.605469 "/>
<path style=" stroke:none;fill-rule:nonzero;fill:rgb(0%,54.899597%,26.699829%);fill-opacity:1;" d="M 418.339844 468.640625 C 418.339844 468.640625 407.667969 459.90625 397.015625 470.574219 C 397.015625 470.574219 379.558594 486.09375 378.589844 503.550781 C 378.589844 503.550781 409.605469 502.570313 418.339844 468.640625 "/>
<path style=" stroke:none;fill-rule:nonzero;fill:rgb(0%,54.899597%,26.699829%);fill-opacity:1;" d="M 457.121094 468.640625 C 457.121094 468.640625 446.449219 459.90625 435.796875 470.574219 C 435.796875 470.574219 418.339844 486.09375 417.355469 503.550781 C 417.355469 503.550781 448.398438 502.570313 457.121094 468.640625 "/>
<path style=" stroke:none;fill-rule:nonzero;fill:rgb(0%,54.899597%,26.699829%);fill-opacity:1;" d="M 495.902344 468.640625 C 495.902344 468.640625 485.230469 459.90625 474.5625 470.574219 C 474.5625 470.574219 457.121094 486.09375 456.140625 503.550781 C 456.140625 503.550781 487.183594 502.570313 495.902344 468.640625 "/>
<path style=" stroke:none;fill-rule:nonzero;fill:rgb(0%,54.899597%,26.699829%);fill-opacity:1;" d="M 534.667969 468.640625 C 534.667969 468.640625 524.011719 459.90625 513.34375 470.574219 C 513.34375 470.574219 495.902344 486.09375 494.933594 503.550781 C 494.933594 503.550781 525.949219 502.570313 534.667969 468.640625 "/>
<path style=" stroke:none;fill-rule:nonzero;fill:rgb(0%,54.899597%,26.699829%);fill-opacity:1;" d="M 504.488281 448.941406 C 512.960938 367.113281 585.601563 312.578125 588.078125 251.355469 C 594.246094 185.136719 571.777344 155.925781 530.828125 125.5 C 506.089844 111.914063 473.183594 78.496094 462.835938 67.664063 L 456.902344 66.945313 C 446.980469 78.1875 415.394531 112.835938 391.195313 127.359375 C 351.445313 159.355469 330.105469 189.414063 338.84375 255.34375 C 343.679688 316.414063 418.339844 367.496094 429.960938 448.941406 L 504.488281 448.941406 "/>
<path style=" stroke:none;fill-rule:nonzero;fill:rgb(0%,54.899597%,26.699829%);fill-opacity:1;" d="M 507.175781 518.722656 C 507.175781 518.722656 499.066406 584.660156 554.027344 626.214844 L 475.089844 692.328125 L 468.757813 691.625 L 387.3125 628.617188 C 440.632813 584.984375 429.960938 518.722656 429.960938 518.722656 L 507.175781 518.722656 "/>
<path style=" stroke:none;fill-rule:nonzero;fill:rgb(92.89856%,10.998535%,14.099121%);fill-opacity:1;" d="M 533.128906 247.441406 C 533.128906 284.917969 502.746094 315.300781 465.253906 315.300781 C 427.792969 315.300781 397.410156 284.917969 397.410156 247.441406 C 397.410156 209.964844 427.792969 179.566406 465.253906 179.566406 C 502.746094 179.566406 533.128906 209.964844 533.128906 247.441406 "/>
</g>
</svg>
