<svg width="100" height="100" xmlns="http://www.w3.org/2000/svg" version="1.1">

 <g>
  <title>Layer 1</title>
  <g stroke="null" id="surface1">
   <path stroke="null" id="svg_1" fill="rgb(92.89856%,10.998535%,14.099121%)" fill-rule="nonzero" d="m98.66479,50c0,26.87739 -21.78882,48.66621 -48.66499,48.66621c-26.87576,0 -48.66458,-21.78882 -48.66458,-48.66621c0,-26.87617 21.78882,-48.66621 48.66458,-48.66621c26.87617,0 48.66499,21.79005 48.66499,48.66621"/>
   <path stroke="null" id="svg_2" fill="rgb(0%,54.899597%,26.699829%)" fill-rule="nonzero" d="m97.88231,50c0,6.46443 -1.26623,12.73528 -3.76283,18.63812c-2.41143,5.70192 -5.86453,10.82268 -10.26191,15.22047c-4.39778,4.39778 -9.51855,7.85089 -15.22006,10.26231c-5.90284,2.4966 -12.17328,3.76284 -18.63771,3.76284c-6.46402,0 -12.73446,-1.26623 -18.6373,-3.76284c-5.70151,-2.41143 -10.82228,-5.86453 -15.22006,-10.26231c-4.39778,-4.39779 -7.85048,-9.51855 -10.26231,-15.22047c-2.4966,-5.90284 -3.76243,-12.17369 -3.76243,-18.63812c0,-6.46443 1.26583,-12.73487 3.76243,-18.63771c2.41183,-5.70192 5.86453,-10.82268 10.26231,-15.22088c4.39779,-4.39779 9.51855,-7.85048 15.22006,-10.26231c5.90284,-2.49701 12.17328,-3.76284 18.6373,-3.76284c6.46443,0 12.73487,1.26583 18.63771,3.76284c5.70151,2.41183 10.82228,5.86453 15.22006,10.26231c4.39738,4.39819 7.85048,9.51896 10.26191,15.22088c2.4966,5.90284 3.76283,12.17328 3.76283,18.63771zm-47.88251,-49.44869c-6.67472,0 -13.15016,1.30739 -19.24698,3.88632c-5.88817,2.4909 -11.17602,6.05607 -15.71726,10.59731c-4.54083,4.54124 -8.10601,9.8295 -10.5965,15.71767c-2.57893,6.09683 -3.88632,12.57226 -3.88632,19.24739c0,6.67513 1.30739,13.15097 3.88632,19.2478c2.49049,5.88817 6.05567,11.17643 10.5965,15.71767c4.54124,4.54083 9.8291,8.10642 15.71726,10.59691c6.09642,2.57852 12.57226,3.88632 19.24698,3.88632c6.67513,0 13.15056,-1.3078 19.24698,-3.88632c5.88817,-2.49049 11.17643,-6.05607 15.71726,-10.59691c4.54083,-4.54124 8.10601,-9.8295 10.59691,-15.71767c2.57852,-6.09683 3.88632,-12.57267 3.88632,-19.2478c0,-6.67513 -1.3078,-13.15056 -3.88632,-19.24739c-2.4909,-5.88817 -6.05607,-11.17643 -10.59691,-15.71767c-4.54083,-4.54124 -9.8291,-8.10642 -15.71685,-10.59731c-6.09683,-2.57893 -12.57226,-3.88632 -19.24739,-3.88632"/>
   <path stroke="null" id="svg_3" fill="rgb(100%,100%,100%)" fill-rule="nonzero" d="m87.62733,39.59749c0,20.78056 -16.84656,37.62712 -37.62753,37.62712c-20.78056,0 -37.62712,-16.84656 -37.62712,-37.62712c0,-20.7826 16.84656,-37.62916 37.62712,-37.62916c20.78097,0 37.62753,16.84656 37.62753,37.62916"/>
   <path stroke="null" id="svg_4" fill="rgb(0%,54.899597%,26.699829%)" fill-rule="nonzero" d="m86.84485,39.59749c0,9.84132 -3.83252,19.09375 -10.79171,26.05293c-6.95919,6.95919 -16.21161,10.79171 -26.05334,10.79171c-9.84132,0 -19.09415,-3.83252 -26.05293,-10.79171c-6.95919,-6.95919 -10.79171,-16.21161 -10.79171,-26.05293c0,-9.84255 3.83252,-19.09538 10.79171,-26.05497c6.95878,-6.95919 16.2112,-10.79171 26.05293,-10.79171c9.84173,0 19.09416,3.83252 26.05334,10.79171c6.95919,6.95959 10.79171,16.21243 10.79171,26.05497zm-36.84505,-38.41164c-10.25946,0 -19.90516,3.99554 -27.15982,11.2502c-7.25465,7.25506 -11.24979,16.90076 -11.24979,27.16145c0,10.25946 3.99513,19.90476 11.24979,27.15941c7.25465,7.25506 16.90036,11.2502 27.15982,11.2502c10.25946,0 19.90516,-3.99513 27.15982,-11.2502c7.25465,-7.25465 11.2502,-16.89995 11.2502,-27.15941c0,-10.26068 -3.99554,-19.90639 -11.2502,-27.16145c-7.25465,-7.25465 -16.89995,-11.2502 -27.15982,-11.2502"/>
   <path stroke="null" id="svg_5" fill="rgb(0%,54.899597%,26.699829%)" fill-rule="nonzero" d="m25.97887,49.83495c0,0 -7.42704,0.27183 -8.68553,-9.67342c-1.124,-7.49266 6.66861,-10.97021 11.81709,-9.39955c5.81685,1.77077 11.98988,7.22042 13.62453,16.89221l-2.58911,0c0,0 -5.31353,-8.71936 -11.98825,-6.5386c-3.40664,1.09017 -2.17872,8.71936 -2.17872,8.71936"/>
   <path stroke="null" id="svg_6" fill="rgb(0%,54.899597%,26.699829%)" fill-rule="nonzero" d="m40.96256,54.46503l2.31688,0c0,0 0.81631,8.71895 -4.08724,9.67342c-5.58618,0.95406 -7.08471,-4.08602 -7.08471,-4.08602c0,0 7.90224,2.31525 8.85507,-5.5874"/>
   <path stroke="null" id="svg_7" fill="rgb(0%,54.899597%,26.699829%)" fill-rule="nonzero" d="m72.5332,49.83495c0,0 7.42704,0.27183 8.68553,-9.67342c1.12237,-7.49266 -6.66861,-10.97021 -11.81872,-9.39955c-5.81848,1.77077 -11.98988,7.22042 -13.62453,16.89221l2.58871,0c0,0 5.31394,-8.71936 11.98825,-6.5386c3.40542,1.09017 2.18076,8.71936 2.18076,8.71936"/>
   <path stroke="null" id="svg_8" fill="rgb(0%,54.899597%,26.699829%)" fill-rule="nonzero" d="m57.54747,54.46503l-2.31647,0c0,0 -0.81631,8.71895 4.08765,9.67342c5.58577,0.95406 7.0843,-4.08602 7.0843,-4.08602c0,0 -7.90265,2.31525 -8.85548,-5.5874"/>
   <path stroke="null" id="svg_9" fill="rgb(0%,54.899597%,26.699829%)" fill-rule="nonzero" d="m38.43172,49.54559c0,0 -1.7186,0.60561 -1.61916,3.23711c0,0 3.23711,0.80897 2.73257,-3.44047l-1.1134,0.20336"/>
   <path stroke="null" id="svg_10" fill="rgb(0%,54.899597%,26.699829%)" fill-rule="nonzero" d="m58.96694,49.54559c0,0 -1.72064,0.60561 -1.61957,3.23711c0,0 3.23711,0.80897 2.73094,-3.44047l-1.11137,0.20336"/>
   <path stroke="null" id="svg_11" fill="rgb(0%,54.899597%,26.699829%)" fill-rule="nonzero" d="m44.19844,49.44493c0,0 -1.1134,-0.91126 -2.22477,0.20173c0,0 -1.82131,1.61916 -1.92238,3.44047c0,0 3.23588,-0.10229 4.14715,-3.6422"/>
   <path stroke="null" id="svg_12" fill="rgb(0%,54.899597%,26.699829%)" fill-rule="nonzero" d="m48.24451,49.44493c0,0 -1.1134,-0.91126 -2.22477,0.20173c0,0 -1.82131,1.61916 -1.92401,3.44047c0,0 3.23874,-0.10229 4.14878,-3.6422"/>
   <path stroke="null" id="svg_13" fill="rgb(0%,54.899597%,26.699829%)" fill-rule="nonzero" d="m52.29059,49.44493c0,0 -1.1134,-0.91126 -2.2264,0.20173c0,0 -1.81968,1.61916 -1.92197,3.44047c0,0 3.23873,-0.10229 4.14837,-3.6422"/>
   <path stroke="null" id="svg_14" fill="rgb(0%,54.899597%,26.699829%)" fill-rule="nonzero" d="m56.33504,49.44493c0,0 -1.11177,-0.91126 -2.22477,0.20173c0,0 -1.81968,1.61916 -1.92075,3.44047c0,0 3.23588,-0.10229 4.14552,-3.6422"/>
   <path stroke="null" id="svg_15" fill="rgb(0%,54.899597%,26.699829%)" fill-rule="nonzero" d="m53.18637,47.3897c0.88396,-8.53719 8.46261,-14.22688 8.72099,-20.61429c0.64351,-6.90865 -1.70067,-9.95625 -5.97293,-13.13059c-2.58096,-1.41743 -6.0141,-4.90395 -7.09368,-6.03407l-0.61906,-0.07499c-1.03516,1.17291 -4.33054,4.7878 -6.85526,6.30304c-4.14715,3.33818 -6.37355,6.47421 -5.46188,13.3527c0.50454,6.37151 8.29389,11.70094 9.50632,20.19819l7.77549,0"/>
   <path stroke="null" id="svg_16" fill="rgb(0%,54.899597%,26.699829%)" fill-rule="nonzero" d="m53.46676,54.67003c0,0 -0.84606,6.87931 4.88806,11.21474l-8.23561,6.89765l-0.66063,-0.07336l-8.49725,-6.57365c5.56295,-4.55224 4.44954,-11.46538 4.44954,-11.46538l8.05588,0"/>
   <path stroke="null" id="svg_17" fill="rgb(92.89856%,10.998535%,14.099121%)" fill-rule="nonzero" d="m56.17447,26.36705c0,3.90996 -3.16986,7.07982 -7.08145,7.07982c-3.90833,0 -7.07819,-3.16986 -7.07819,-7.07982c0,-3.90996 3.16986,-7.08145 7.07819,-7.08145c3.91159,0 7.08145,3.17149 7.08145,7.08145"/>
  </g>
 </g>
</svg>